
<svg
  width="487.79999999999995"
  height="166.56585365853658"
  viewBox="0 0 410 140"
  class="css-1j8o68f"
  xmlns="http://www.w3.org/2000/svg"
>
  <defs id="SvgjsDefs1016">
    <linearGradient id="SvgjsLinearGradient1023">
      <stop id="SvgjsStop1024" stop-color="#00ff8f" offset="0"></stop>
      <stop id="SvgjsStop1025" stop-color="#00a1ff" offset="1"></stop>
    </linearGradient>
  </defs>
  <g
    id="SvgjsG1018"
    featurekey="symbolFeature-0"
    transform="matrix(1.2598347904759288,0,0,1.2598347904759288,2.8549080768951143,7.111890670137848)"
    fill="url(#SvgjsLinearGradient1023)"
  >
    <g xmlns="http://www.w3.org/2000/svg">
      <path
        fill-rule="evenodd"
        clip-rule="evenodd"
        d="M80.11,49.695c0.003,5.951,1.481,10.771,3.303,10.771   c1.823,0,3.302-4.824,3.305-10.768c-0.003-5.951-1.479-10.773-3.303-10.773C81.591,38.926,80.107,43.748,80.11,49.695z"
      ></path>
      <path
        fill-rule="evenodd"
        clip-rule="evenodd"
        d="M39.138,14.154c-15.075,6.26-25.529,19.93-25.529,35.779   c-0.004,15.852,10.454,29.52,25.536,35.777C30.504,78.232,24.764,65,24.764,49.934S30.508,21.637,39.138,14.154z"
      ></path>
      <path
        fill-rule="evenodd"
        clip-rule="evenodd"
        d="M49.349,10.23c-7.066,0-12.803,17.854-12.803,39.857   c0,22.016,5.736,39.859,12.808,39.861c3.491-0.002,6.66-4.367,8.969-11.438c1.954,4.756,4.414,7.598,7.084,7.598   c6.367,0.002,11.532-16.066,11.527-35.883c0.005-19.816-5.156-35.887-11.521-35.879c-2.651,0-5.093,2.797-7.041,7.484   C56.057,14.668,52.871,10.234,49.349,10.23z M75.225,50.227c0.005,11.121-2.764,20.143-6.174,20.143   c-3.412,0-6.176-9.023-6.176-20.139c0-11.127,2.764-20.146,6.176-20.15C72.465,30.084,75.229,39.102,75.225,50.227z M57.792,23.318   c-2.395,6.576-3.907,16.191-3.907,26.908c-0.001,10.623,1.484,20.166,3.841,26.736c-1.15,1.559-2.418,2.424-3.748,2.424   c-5.202-0.004-9.414-13.117-9.414-29.299c0-16.174,4.212-29.293,9.407-29.293C55.333,20.797,56.626,21.701,57.792,23.318z"
      ></path>
    </g>
  </g>
  <g
    id="SvgjsG1019"
    featurekey="nameFeature-0"
    transform="matrix(1.6170977160213948,0,0,1.6170977160213948,130.77100536569947,25.972531978348748)"
    fill="#ffffff"
  >
    <path d="M27.88 31.64 c0 1.84 0.76 1.88 2.72 1.88 l0 0.28 l-7.16 0 l0.04 -0.28 c1.92 0 2.72 -0.04 2.72 -1.88 l0 -14.76 c0 -1.8 -0.8 -1.84 -2.72 -1.84 l-0.04 -0.28 l7.16 0 l0 0.28 c-1.96 0 -2.72 0.04 -2.72 1.84 l0 14.76 z M33.16 37.32 c-2.8 2.28 -5.28 3.2 -7.56 3.2 c-8.72 0 -14.24 -13.24 -20.44 -12.76 l0 10.12 c0 1.8 0.8 1.84 2.76 1.84 l0 0.28 l-7.16 0 l0 -0.28 c1.96 0 2.76 -0.04 2.76 -1.84 l0 -21 c0 -1.8 -0.8 -1.84 -2.76 -1.84 l0 -0.28 l9.6 0 c7.8 0 10.28 3.88 10.28 7.04 c0 4.36 -3.44 7.2 -7.72 7.2 c-0.64 0 -1.28 -0.08 -1.96 -0.2 c5.04 3.12 9.12 10.36 15.64 10.36 c1.88 0 4 -0.6 6.36 -2.08 z M9.12 27.880000000000003 c0.96 0.32 1.92 0.44 2.8 0.44 c3.92 0 7 -2.72 7 -6.8 c0 -3.2 -2.8 -6.32 -8.52 -6.32 l-5.24 0 l0 12.2 l1.4 0 c0.88 0 1.72 0.16 2.56 0.48 z M46.68 14.239999999999998 c16.92 0 16.92 26.36 0 26.36 c-16.96 0 -16.96 -26.36 0 -26.36 z M45.84 15.04 c-15.04 0 -13.36 24.76 1.64 24.76 s13.44 -24.76 -1.64 -24.76 z M72.60000000000001 37.88 c0 1.84 0.8 1.88 2.76 1.88 l0 0.28 l-7.16 0 l0 -0.28 c1.96 0 2.76 -0.04 2.76 -1.88 l0 -22.68 l-5.96 0 c-3.52 0.04 -3.52 0.24 -4.08 5.56 l-0.32 0 l0.36 -6 l21.64 0 l0.36 6 l-0.28 0 c-0.56 -5.4 -0.56 -5.56 -4.32 -5.56 l-5.76 0 l0 22.68 z M120.92 14.239999999999998 c16.96 0 16.96 26.36 0 26.36 c-6.48 0 -10.48 -3.88 -12 -8.68 c-1.52 4.8 -5.52 8.68 -12.04 8.68 c-16.92 0 -16.92 -26.36 0 -26.36 c6.52 0 10.52 3.92 12.04 8.72 c1.52 -4.8 5.52 -8.72 12 -8.72 z M96.08 15.04 c-15.04 0 -13.36 24.76 1.64 24.76 s13.4 -24.76 -1.64 -24.76 z M120.12 15.04 c-15.04 0 -13.36 24.76 1.64 24.76 s13.4 -24.76 -1.64 -24.76 z M157.48 38.2 l0.04 0 l0 2.28 l-0.48 0 l-18.12 -23.76 l0 21.16 c0 1.84 1.44 1.88 2.72 1.88 l0 0.28 l-6 0 l0 -0.28 c1.32 0 2.72 -0.04 2.72 -1.88 l0 -20.96 c0 -1.84 -1.44 -1.88 -2.72 -1.88 l0 -0.28 l4.04 0 l17.28 22.72 l0 -20.56 c0 -1.84 -1.48 -1.88 -2.76 -1.88 l0 -0.28 l6.04 0 l0 0.28 c-1.28 0 -2.76 0.04 -2.76 1.88 l0 21.28 z"></path>
  </g>
</svg>
